  0
SECTION
  2
HEADER
  9
$ACADVER
  1
AC1009
  9
$DWGCODEPAGE
  3
dos932
  9
$INSBASE
 10
0.0
 20
0.0
 30
0.0
  9
$EXTMIN
 10
-4306.0
 20
-1479.0
 30
0.0
  9
$EXTMAX
 10
-4089.5
 20
-1294.5
 30
0.0
  9
$LIMMIN
 10
0.0
 20
0.0
  9
$LIMMAX
 10
0.0
 20
0.0
  9
$ORTHOMODE
 70
               0
  9
$REGENMODE
 70
               1
  9
$FILLMODE
 70
               1
  9
$QTEXTMODE
 70
               0
  9
$MIRRTEXT
 70
               1
  9
$DRAGMODE
 70
               2
  9
$LTSCALE
 40
508.0
  9
$OSMODE
 70
               0
  9
$ATTMODE
 70
               1
  9
$TEXTSIZE
 40
0.2
  9
$TRACEWID
 40
1.0
  9
$TEXTSTYLE
  7
STANDARD
  9
$CLAYER
  8
0
  9
$CELTYPE
  6
CONTINUOUS
  9
$CECOLOR
 62
             256
  9
$DIMSCALE
 40
1.0
  9
$DIMASZ
 40
0.18
  9
$DIMEXO
 40
0.0625
  9
$DIMDLI
 40
0.38
  9
$DIMRND
 40
0.0
  9
$DIMDLE
 40
0.0
  9
$DIMEXE
 40
0.18
  9
$DIMTP
 40
0.0
  9
$DIMTM
 40
0.0
  9
$DIMTXT
 40
0.18
  9
$DIMCEN
 40
0.09
  9
$DIMTSZ
 40
0.0
  9
$DIMTOL
 70
               0
  9
$DIMLIM
 70
               0
  9
$DIMTIH
 70
               1
  9
$DIMTOH
 70
               1
  9
$DIMSE1
 70
               0
  9
$DIMSE2
 70
               0
  9
$DIMTAD
 70
               0
  9
$DIMZIN
 70
               0
  9
$DIMBLK
  1

  9
$DIMASO
 70
               1
  9
$DIMSHO
 70
               1
  9
$DIMPOST
  1

  9
$DIMAPOST
  1

  9
$DIMALT
 70
               0
  9
$DIMALTD
 70
               2
  9
$DIMALTF
 40
25.399999999999999
  9
$DIMLFAC
 40
1.0
  9
$DIMTOFL
 70
               0
  9
$DIMTVP
 40
0.0
  9
$DIMTIX
 70
               0
  9
$DIMSOXD
 70
               0
  9
$DIMSAH
 70
               0
  9
$DIMBLK1
  1

  9
$DIMBLK2
  1

  9
$DIMSTYLE
  2
STANDARD
  9
$DIMCLRD
 70
               0
  9
$DIMCLRE
 70
               0
  9
$DIMCLRT
 70
               0
  9
$DIMTFAC
 40
1.0
  9
$DIMGAP
 40
0.09
  9
$LUNITS
 70
               2
  9
$LUPREC
 70
               4
  9
$AXISMODE
 70
               0
  9
$AXISUNIT
 10
0.0
 20
0.0
  9
$SKETCHINC
 40
0.1
  9
$FILLETRAD
 40
0.0
  9
$AUNITS
 70
               0
  9
$AUPREC
 70
               0
  9
$MENU
  1
acad
  9
$ELEVATION
 40
0.0
  9
$PELEVATION
 40
0.0
  9
$THICKNESS
 40
0.0
  9
$LIMCHECK
 70
               0
  9
$BLIPMODE
 70
               0
  9
$CHAMFERA
 40
0.0
  9
$CHAMFERB
 40
0.0
  9
$SKPOLY
 70
               0
  9
$TDCREATE
 40
2456911.492048611
  9
$TDUPDATE
 40
2456911.492048611
  9
$TDINDWG
 40
0.0000000000
  9
$TDUSRTIMER
 40
0.0000000000
  9
$USRTIMER
 70
               1
  9
$ANGBASE
 50
0.0
  9
$ANGDIR
 70
               0
  9
$PDMODE
 70
               1
  9
$PDSIZE
 40
-2.0
  9
$PLINEWID
 40
0.0
  9
$COORDS
 70
               0
  9
$SPLFRAME
 70
               0
  9
$SPLINETYPE
 70
               6
  9
$SPLINESEGS
 70
               8
  9
$ATTDIA
 70
               0
  9
$ATTREQ
 70
               1
  9
$HANDLING
 70
               1
  9
$HANDSEED
  5
7B
  9
$SURFTAB1
 70
               6
  9
$SURFTAB2
 70
               6
  9
$SURFTYPE
 70
               6
  9
$SURFU
 70
               6
  9
$SURFV
 70
               6
  9
$UCSNAME
  2

  9
$UCSORG
 10
0.0
 20
0.0
 30
0.0
  9
$UCSXDIR
 10
1.0
 20
0.0
 30
0.0
  9
$UCSYDIR
 10
0.0
 20
1.0
 30
0.0
  9
$PUCSNAME
  2

  9
$PUCSORG
 10
0.0
 20
0.0
 30
0.0
  9
$PUCSXDIR
 10
1.0
 20
0.0
 30
0.0
  9
$PUCSYDIR
 10
0.0
 20
1.0
 30
0.0
  9
$USERI1
 70
               0
  9
$USERI2
 70
               0
  9
$USERI3
 70
               0
  9
$USERI4
 70
               0
  9
$USERI5
 70
               0
  9
$USERR1
 40
0.0
  9
$USERR2
 40
0.0
  9
$USERR3
 40
0.0
  9
$USERR4
 40
0.0
  9
$USERR5
 40
0.0
  9
$WORLDVIEW
 70
               1
  9
$SHADEDGE
 70
               3
  9
$SHADEDIF
 70
              70
  9
$TILEMODE
 70
               1
  9
$MAXACTVP
 70
              16
  9
$PINSBASE
 10
0.0
 20
0.0
 30
0.0
  9
$PLIMCHECK
 70
               0
  9
$PEXTMIN
 10
1.0000000000000000E+20
 20
1.0000000000000000E+20
 30
1.0000000000000000E+20
  9
$PEXTMAX
 10
-1.0000000000000000E+20
 20
-1.0000000000000000E+20
 30
-1.0000000000000000E+20
  9
$PLIMMIN
 10
0.0
 20
0.0
  9
$PLIMMAX
 10
12.0
 20
9.0
  9
$UNITMODE
 70
               0
  9
$VISRETAIN
 70
               0
  9
$PLINEGEN
 70
               1
  9
$PSLTSCALE
 70
               0
  9
$TREEDEPTH
 70
            3020
  9
$DWGCODEPAGE
  3
dos932
  0
ENDSEC
  0
SECTION
  2
TABLES
  0
TABLE
  2
VPORT
 70
               1
  0
VPORT
  2
*ACTIVE
 70
               0
 10
0.0
 20
0.0
 11
1.0
 21
1.0
 12
-4197.75
 22
-1386.75
 13
0.0
 23
0.0
 14
1.0
 24
1.0
 15
0.0
 25
0.0
 16
0.0
 26
0.0
 36
1.0
 17
0.0
 27
0.0
 37
0.0
 40
184.5
 41
0.688564
 42
50.0
 43
0.0
 44
0.0
 50
0.0
 51
0.0
 71
               0
 72
             100
 73
               1
 74
               1
 75
               0
 76
               0
 77
               0
 78
               0
  0
ENDTAB
  0
TABLE
  2
LTYPE
 70
              12
  0
LTYPE
  2
CONTINUOUS
 70
              64
  3
Solid line
 72
              65
 73
               0
 40
0.0
  0
LTYPE
  2
STYLE_01
 70
               0
  3

 72
              65
 73
               2
 40
0.41664
 49
0.20828
 49
-0.20836
  0
LTYPE
  2
STYLE_02
 70
               0
  3

 72
              65
 73
               2
 40
0.6944250000000001
 49
0.48607
 49
-0.2083550000000001
  0
LTYPE
  2
STYLE_03
 70
               0
  3

 72
              65
 73
               2
 40
1.25
 49
1.0416400000000001
 49
-0.2083599999999999
  0
LTYPE
  2
STYLE_04
 70
               0
  3

 72
              65
 73
               2
 40
1.5277099999999999
 49
1.3194249999999998
 49
-0.208285
  0
LTYPE
  2
STYLE_05
 70
               0
  3

 72
              65
 73
               2
 40
0.20828
 49
0.069425
 49
-0.138855
  0
LTYPE
  2
STYLE_06
 70
               0
  3

 72
              65
 73
               4
 40
1.0416400000000001
 49
0.625
 49
-0.20828
 49
0.06943
 49
-0.13893
  0
LTYPE
  2
STYLE_07
 70
               0
  3

 72
              65
 73
               6
 40
1.875
 49
0.625
 49
-0.20828
 49
0.6250000000000001
 49
-0.2083599999999999
 49
0.06943
 49
-0.1389299999999999
  0
LTYPE
  2
STYLE_08
 70
               0
  3

 72
              65
 73
               6
 40
1.25
 49
0.625
 49
-0.20828
 49
0.06943
 49
-0.13893
 49
0.0694299999999999
 49
-0.13893
  0
LTYPE
  2
STYLE_09
 70
               0
  3

 72
              65
 73
               4
 40
5.0
 49
3.75
 49
-0.2777849999999998
 49
0.6944300000000003
 49
-0.2777849999999998
  0
LTYPE
  2
STYLE_10
 70
               0
  3

 72
              65
 73
               6
 40
5.9375
 49
3.75
 49
-0.2777849999999998
 49
0.6944300000000003
 49
-0.2777849999999998
 49
0.625
 49
-0.3125
  0
LTYPE
  2
STYLE_11
 70
               0
  3

 72
              65
 73
               2
 40
0.4921259842519685
 49
0.2460629921259842
 49
-0.2460629921259842
  0
ENDTAB
  0
TABLE
  2
LAYER
 70
              24
  0
LAYER
  2
0
 70
               0
 62
               7
  6
CONTINUOUS
  0
LAYER
  2
DEFPOINTS
 70
               0
 62
               7
  6
CONTINUOUS
  0
LAYER
  2
__
 70
               0
 62
              23
  6
CONTINUOUS
  0
LAYER
  2
__-1
 70
               0
 62
               1
  6
CONTINUOUS
  0
LAYER
  2
S-BLUE09
 70
               0
 62
               5
  6
CONTINUOUS
  0
LAYER
  2
S-BLUE09DOT
 70
               0
 62
               5
  6
STYLE_11
  0
LAYER
  2
S-CYAN20
 70
               0
 62
               4
  6
CONTINUOUS
  0
LAYER
  2
S-CYAN20DOT
 70
               0
 62
               4
  6
STYLE_01
  0
LAYER
  2
S-GRAY09
 70
               0
 62
               8
  6
CONTINUOUS
  0
LAYER
  2
S-GRAY09GRID
 70
               0
 62
               8
  6
STYLE_06
  0
LAYER
  2
S-GREEN30
 70
               0
 62
               3
  6
CONTINUOUS
  0
LAYER
  2
S-GREEN30DOT
 70
               0
 62
               3
  6
STYLE_11
  0
LAYER
  2
S-MAGENDA30
 70
               0
 62
               6
  6
CONTINUOUS
  0
LAYER
  2
S-MAGENDA30DOT
 70
               0
 62
               6
  6
STYLE_11
  0
LAYER
  2
S-ORANGE40
 70
               0
 62
              30
  6
CONTINUOUS
  0
LAYER
  2
S-ORANGE40DOT
 70
               0
 62
              30
  6
STYLE_05
  0
LAYER
  2
S-RED09
 70
               0
 62
               1
  6
CONTINUOUS
  0
LAYER
  2
S-RED09DOT
 70
               0
 62
               1
  6
STYLE_11
  0
LAYER
  2
S-SKY06
 70
               0
 62
             150
  6
CONTINUOUS
  0
LAYER
  2
S-SKY06DOT
 70
               0
 62
             150
  6
STYLE_11
  0
LAYER
  2
S-WHITE40
 70
               0
 62
               7
  6
CONTINUOUS
  0
LAYER
  2
S-WHITE40DOT
 70
               0
 62
               7
  6
STYLE_11
  0
LAYER
  2
S-YELLOW20
 70
               0
 62
               2
  6
CONTINUOUS
  0
LAYER
  2
S-YELLOW20DOT
 70
               0
 62
               2
  6
STYLE_01
  0
ENDTAB
  0
TABLE
  2
STYLE
 70
               1
  0
STYLE
  2
STANDARD
 70
               0
 40
0.0
 41
1.0
 50
0.0
 71
               0
 42
0.0
  3
txt
  4
BIGFONT.SHX
  0
ENDTAB
  0
TABLE
  2
VIEW
 70
               0
  0
ENDTAB
  0
TABLE
  2
UCS
 70
               0
  0
ENDTAB
  0
TABLE
  2
APPID
 70
               1
  0
APPID
  2
ACAD
 70
               0
  0
ENDTAB
  0
TABLE
  2
DIMSTYLE
 70
               1
  0
DIMSTYLE
  2
STANDARD
 70
               0
  3

  4

  5

  6

  7

 40
1.0
 41
0.18
 42
0.0625
 43
0.38
 44
0.18
 45
0.0
 46
0.0
 47
0.0
 48
0.0
 71
               0
 72
               0
 73
               1
 74
               1
 75
               0
 76
               0
 77
               0
 78
               0
140
0.18
141
0.09
142
0.0
143
25.399999999999999
144
1.0
145
0.0
146
1.0
147
0.09
170
               0
171
               2
172
               0
173
               0
174
               0
175
               0
176
               0
177
               0
178
               0
  0
ENDTAB
  0
ENDSEC
  0
SECTION
  2
BLOCKS
  0
BLOCK
  8
__
  5
49
  2
D10
 70
               0
 10
0.0
 20
0.0
 30
0.0
  3
D10
  0
CIRCLE
  8
S-YELLOW20
  5
4A
 10
0.0
 20
0.0
 30
0.0
 40
5.5
  0
ENDBLK
  8
__
  5
4B
  0
BLOCK
  8
__
  5
4C
  2
D13
 70
               0
 10
0.0
 20
0.0
 30
0.0
  3
D13
  0
LINE
  8
S-YELLOW20
  5
4D
 10
-7.0
 20
-7.0
 30
0.0
 11
7.0
 21
7.0
 31
0.0
  0
LINE
  8
S-YELLOW20
  5
4E
 10
-7.0
 20
7.0
 30
0.0
 11
7.0
 21
-7.0
 31
0.0
  0
ENDBLK
  8
__
  5
4F
  0
BLOCK
  8
__
  5
50
  2
D16
 70
               0
 10
0.0
 20
0.0
 30
0.0
  3
D16
  0
CIRCLE
  8
S-YELLOW20
  5
51
 10
0.0
 20
0.0
 30
0.0
 40
9.0
  0
LINE
  8
S-YELLOW20
  5
52
 10
-9.0
 20
-9.0
 30
0.0
 11
9.0
 21
9.0
 31
0.0
  0
ENDBLK
  8
__
  5
53
  0
BLOCK
  8
__
  5
54
  2
D19
 70
               0
 10
0.0
 20
0.0
 30
0.0
  3
D19
  0
CIRCLE
  8
S-YELLOW20
  5
55
 10
0.0
 20
0.0
 30
0.0
 40
10.5
  0
ENDBLK
  8
__
  5
56
  0
BLOCK
  8
__
  5
57
  2
D22
 70
               0
 10
0.0
 20
0.0
 30
0.0
  3
D22
  0
CIRCLE
  8
S-YELLOW20
  5
58
 10
0.0
 20
0.0
 30
0.0
 40
12.5
  0
ENDBLK
  8
__
  5
59
  0
BLOCK
  8
__
  5
5A
  2
D25
 70
               0
 10
0.0
 20
0.0
 30
0.0
  3
D25
  0
CIRCLE
  8
S-YELLOW20
  5
5B
 10
0.0
 20
0.0
 30
0.0
 40
14.0
  0
CIRCLE
  8
S-YELLOW20
  5
5C
 10
0.0
 20
0.0
 30
0.0
 40
5.0
  0
ENDBLK
  8
__
  5
5D
  0
BLOCK
  8
__
  5
5E
  2
D29
 70
               0
 10
0.0
 20
0.0
 30
0.0
  3
D29
  0
CIRCLE
  8
S-YELLOW20
  5
5F
 10
0.0
 20
0.0
 30
0.0
 40
16.5
  0
LINE
  8
S-YELLOW20
  5
60
 10
-11.667261889577276
 20
-11.667261889577276
 30
0.0
 11
11.667261889577276
 21
11.667261889577276
 31
0.0
  0
LINE
  8
S-YELLOW20
  5
61
 10
-11.667261889577276
 20
11.667261889577276
 30
0.0
 11
11.667261889577276
 21
-11.667261889577276
 31
0.0
  0
ENDBLK
  8
__
  5
62
  0
BLOCK
  8
__
  5
63
  2
D32
 70
               0
 10
0.0
 20
0.0
 30
0.0
  3
D32
  0
CIRCLE
  8
S-YELLOW20
  5
64
 10
0.0
 20
0.0
 30
0.0
 40
18.0
  0
CIRCLE
  8
S-YELLOW20
  5
65
 10
0.0
 20
0.0
 30
0.0
 40
9.0
  0
ENDBLK
  8
__
  5
66
  0
BLOCK
  8
__
  5
67
  2
D35
 70
               0
 10
0.0
 20
0.0
 30
0.0
  3
D35
  0
CIRCLE
  8
S-YELLOW20
  5
68
 10
0.0
 20
0.0
 30
0.0
 40
20.0
  0
ENDBLK
  8
__
  5
69
  0
BLOCK
  8
__
  5
6A
  2
D38
 70
               0
 10
0.0
 20
0.0
 30
0.0
  3
D38
  0
CIRCLE
  8
S-YELLOW20
  5
6B
 10
0.0
 20
0.0
 30
0.0
 40
21.5
  0
CIRCLE
  8
S-YELLOW20
  5
6C
 10
0.0
 20
0.0
 30
0.0
 40
14.0
  0
LINE
  8
S-YELLOW20
  5
6D
 10
-21.5
 20
-21.5
 30
0.0
 11
21.5
 21
21.5
 31
0.0
  0
ENDBLK
  8
__
  5
6E